<svg xmlns="http://www.w3.org/2000/svg" version="1.1" xmlns:xlink="http://www.w3.org/1999/xlink" xmlns:svgjs="http://svgjs.dev/svgjs" width="1500" height="1500" viewBox="0 0 1500 1500"><g transform="matrix(1,0,0,1,0,0)"><svg viewBox="0 0 280 280" data-background-color="#ffffff" preserveAspectRatio="xMidYMid meet" height="1500" width="1500" xmlns="http://www.w3.org/2000/svg" xmlns:xlink="http://www.w3.org/1999/xlink"><g id="tight-bounds" transform="matrix(1,0,0,1,0,0)"><svg viewBox="0 0 280 280" height="280" width="280"><g><svg viewBox="0 0 280 280" height="280" width="280"><g><svg viewBox="0 0 280 280" height="280" width="280"><g id="textblocktransform"><svg viewBox="0 0 280 280" height="280" width="280" id="textblock"><g><svg viewBox="0 0 280 280" height="280" width="280"><g transform="matrix(1,0,0,1,74.00336708925556,74.00336708925556)"><svg viewBox="0 0 131.99326582148888 131.99326582148888" height="131.99326582148888" width="131.99326582148888"><g id="icon-0"><svg xmlns="http://www.w3.org/2000/svg" viewBox="2 2 60 60" x="0" y="0" height="131.99326582148888" width="131.99326582148888" class="icon-jxe-0" data-fill-palette-color="accent" id="jxe-0"><path d="M32 2A30 30 0 1 0 62 32 30.034 30.034 0 0 0 32 2M32 60A28 28 0 1 1 60 32 28.03 28.03 0 0 1 32 60" fill="#ff851b" data-fill-palette-color="accent"></path><path d="M37.707 21.293A1 1 0 0 0 36.293 22.707L45.586 32 36.293 41.293A1 1 0 1 0 37.707 42.707L47.707 32.707A1 1 0 0 0 47.707 31.293Z" fill="#ff851b" data-fill-palette-color="accent"></path><path d="M27.707 21.293A1 1 0 0 0 26.293 21.293L16.293 31.293A1 1 0 0 0 16.293 32.707L26.293 42.707A1 1 0 0 0 27.707 41.293L18.414 32 27.707 22.707A1 1 0 0 0 27.707 21.293" fill="#ff851b" data-fill-palette-color="accent"></path></svg></g></svg></g><g id="text-0"><path d="M10.641 100.905l0.465-3.302 19.984 5.921c2.378 0.705 4.21 1.719 5.495 3.044 1.283 1.331 2.179 3.075 2.687 5.232v0l-3.288 0.798c-0.239-0.938-0.571-1.742-0.995-2.413-0.417-0.669-0.906-1.237-1.466-1.704-0.567-0.469-1.173-0.854-1.818-1.157-0.636-0.307-1.298-0.563-1.985-0.766v0zM4.717 99.842v0c-0.611-0.181-1.057-0.537-1.34-1.069-0.291-0.527-0.347-1.095-0.166-1.706v0c0.187-0.63 0.55-1.102 1.091-1.417 0.534-0.317 1.107-0.385 1.717-0.204v0c0.604 0.179 1.047 0.548 1.329 1.107 0.275 0.557 0.32 1.15 0.134 1.78v0c-0.181 0.611-0.534 1.058-1.059 1.343-0.533 0.289-1.102 0.345-1.706 0.166z" fill="#ff851b" data-fill-palette-color="primary"></path><path d="M32.209 57.298l1.589-2.932 16.657 12.53c1.982 1.491 3.344 3.081 4.085 4.771 0.738 1.696 0.967 3.642 0.689 5.841v0l-3.359-0.401c0.103-0.962 0.074-1.832-0.089-2.608-0.157-0.772-0.417-1.475-0.779-2.109-0.368-0.637-0.801-1.21-1.299-1.719-0.489-0.51-1.019-0.981-1.593-1.412v0zM27.029 54.232v0c-0.509-0.383-0.803-0.873-0.882-1.469-0.089-0.595 0.058-1.147 0.44-1.657v0c0.395-0.525 0.901-0.841 1.518-0.947 0.611-0.11 1.172 0.026 1.681 0.409v0c0.504 0.379 0.79 0.879 0.858 1.501 0.063 0.618-0.102 1.19-0.497 1.715v0c-0.383 0.509-0.87 0.805-1.461 0.889-0.601 0.085-1.153-0.062-1.657-0.441z" fill="#ff851b" data-fill-palette-color="primary"></path><path d="M78.911 41.332l-11.43-17.381 2.551-2.123 11.635 17.692zM63.784 19.318v0c-0.35-0.532-0.462-1.092-0.335-1.681 0.123-0.594 0.447-1.064 0.973-1.411v0c0.549-0.361 1.132-0.487 1.749-0.379 0.613 0.102 1.094 0.42 1.444 0.952v0c0.346 0.526 0.447 1.094 0.301 1.703-0.149 0.603-0.498 1.085-1.046 1.446v0c-0.526 0.346-1.085 0.461-1.676 0.344-0.594-0.123-1.064-0.447-1.41-0.974z" fill="#ff851b" data-fill-palette-color="primary"></path><path d="M116.568 25.577l-2.913-16.384c-0.075-0.572-0.363-1.791-0.865-3.655v0l2.938-0.941 0.908 2.524c0.714-0.692 1.435-1.31 2.162-1.855 0.732-0.552 1.49-1.058 2.273-1.517 0.783-0.459 1.567-0.759 2.352-0.899v0c1.109-0.197 2.059-0.233 2.851-0.108 0.792 0.125 1.471 0.443 2.038 0.954 0.568 0.512 1.041 1.238 1.419 2.179 0.372 0.942 0.688 2.145 0.949 3.61v0l2.341 13.166-3.247 0.577-2.276-12.8c-0.144-0.812-0.287-1.535-0.427-2.17-0.139-0.629-0.351-1.149-0.635-1.562-0.284-0.412-0.656-0.704-1.116-0.874-0.466-0.169-1.078-0.186-1.837-0.051v0c-0.706 0.126-1.424 0.413-2.154 0.863-0.729 0.456-1.437 0.953-2.125 1.491-0.686 0.544-1.374 1.157-2.063 1.837v0l2.674 15.037z" fill="#ff851b" data-fill-palette-color="primary"></path><path d="M175.09 16.909v0c-0.293 0.941-0.433 1.898-0.42 2.87 0.015 0.966 0.211 1.87 0.588 2.711 0.371 0.839 0.902 1.58 1.593 2.223 0.696 0.652 1.581 1.145 2.656 1.48v0c1.05 0.327 2.043 0.418 2.979 0.275 0.941-0.135 1.795-0.445 2.564-0.929 0.768-0.484 1.433-1.119 1.994-1.907 0.569-0.792 1.001-1.658 1.294-2.598v0c0.303-0.973 0.445-1.947 0.425-2.922-0.015-0.966-0.201-1.867-0.559-2.701-0.358-0.835-0.888-1.568-1.59-2.201-0.693-0.637-1.565-1.119-2.614-1.446v0c-1.075-0.335-2.082-0.438-3.021-0.309-0.93 0.124-1.786 0.427-2.567 0.907-0.788 0.478-1.462 1.11-2.023 1.897-0.563 0.794-0.996 1.677-1.299 2.65zM171.74 15.865v0c0.45-1.446 1.121-2.722 2.013-3.827 0.892-1.105 1.931-1.986 3.118-2.641 1.181-0.657 2.466-1.065 3.855-1.222 1.39-0.157 2.808-0.01 4.255 0.44v0c1.421 0.442 2.659 1.123 3.713 2.041 1.055 0.918 1.875 1.981 2.462 3.189 0.592 1.209 0.942 2.522 1.048 3.938 0.107 1.416-0.065 2.848-0.516 4.294v0c-0.44 1.414-1.107 2.674-1.998 3.78-0.892 1.105-1.927 1.994-3.105 2.666-1.172 0.674-2.453 1.09-3.842 1.247-1.39 0.157-2.795 0.014-4.216-0.428v0c-1.446-0.45-2.697-1.135-3.752-2.053-1.055-0.918-1.88-1.989-2.475-3.214-0.601-1.226-0.955-2.547-1.061-3.964-0.107-1.416 0.06-2.832 0.501-4.246z" fill="#ff851b" data-fill-palette-color="primary"></path><path d="M231.661 59.419l-1.477 2.42c-0.588-0.308-1.172-0.645-1.751-1.011-0.584-0.37-1.205-0.799-1.862-1.286-0.657-0.487-1.301-1.037-1.931-1.647v0c-0.992-0.961-1.778-1.989-2.36-3.085-0.582-1.105-0.892-2.268-0.93-3.49-0.038-1.222 0.233-2.499 0.814-3.832 0.586-1.337 1.566-2.715 2.943-4.135v0c1.245-1.285 2.52-2.244 3.822-2.876 1.298-0.637 2.582-0.984 3.852-1.042 1.265-0.063 2.479 0.148 3.643 0.632 1.164 0.475 2.24 1.19 3.227 2.146v0c0.972 0.942 1.631 1.944 1.974 3.005 0.349 1.066 0.446 2.145 0.293 3.238-0.163 1.093-0.546 2.177-1.15 3.253-0.604 1.086-1.365 2.103-2.284 3.051v0l-1.714 0.874-9.575-9.278c-0.592 0.611-1.105 1.3-1.539 2.066-0.433 0.765-0.698 1.582-0.793 2.451-0.095 0.869 0.021 1.756 0.348 2.661 0.323 0.91 0.948 1.815 1.877 2.715v0c0.592 0.574 1.169 1.067 1.73 1.48 0.566 0.408 1.074 0.746 1.524 1.014 0.455 0.263 0.894 0.488 1.319 0.676zM229.122 44.541l7.473 7.241c0.135-0.14 0.4-0.476 0.795-1.008 0.404-0.533 0.747-1.161 1.03-1.886 0.278-0.72 0.386-1.506 0.325-2.359-0.061-0.843-0.467-1.628-1.218-2.355v0c-0.833-0.807-1.682-1.294-2.547-1.46-0.87-0.171-1.693-0.175-2.467-0.011-0.779 0.169-1.467 0.445-2.064 0.829-0.596 0.374-1.039 0.711-1.327 1.009z" fill="#ff851b" data-fill-palette-color="primary"></path><path d="M257.28 106.098l-2.38 1.539c-0.396-0.533-0.776-1.09-1.139-1.67-0.366-0.587-0.739-1.242-1.12-1.966-0.381-0.724-0.722-1.498-1.026-2.323v0c-0.477-1.296-0.739-2.564-0.787-3.802-0.045-1.248 0.181-2.431 0.677-3.549 0.496-1.118 1.294-2.151 2.395-3.099 1.108-0.95 2.589-1.766 4.445-2.448v0c1.68-0.618 3.244-0.929 4.692-0.933 1.446-0.01 2.753 0.234 3.923 0.732 1.167 0.492 2.169 1.209 3.008 2.15 0.843 0.933 1.502 2.044 1.976 3.334v0c0.467 1.271 0.626 2.459 0.475 3.564-0.148 1.112-0.529 2.126-1.141 3.044-0.621 0.914-1.437 1.725-2.448 2.432-1.015 0.716-2.142 1.302-3.381 1.758v0l-1.923 0.043-4.602-12.513c-0.799 0.294-1.56 0.691-2.283 1.193-0.723 0.501-1.315 1.123-1.778 1.865-0.463 0.742-0.743 1.591-0.841 2.548-0.104 0.96 0.067 2.047 0.513 3.261v0c0.285 0.774 0.59 1.469 0.917 2.084 0.333 0.613 0.644 1.138 0.933 1.575 0.295 0.434 0.594 0.828 0.895 1.181zM261.447 91.592l3.592 9.767c0.182-0.067 0.567-0.255 1.154-0.564 0.595-0.305 1.177-0.722 1.746-1.252 0.563-0.528 1.002-1.19 1.316-1.984 0.311-0.786 0.286-1.669-0.075-2.651v0c-0.4-1.088-0.954-1.895-1.661-2.421-0.71-0.532-1.449-0.892-2.219-1.08-0.776-0.186-1.515-0.236-2.218-0.148-0.7 0.079-1.244 0.19-1.635 0.333z" fill="#ff851b" data-fill-palette-color="primary"></path><path d="M4.512 139.639c0-6.105 4.949-11.054 11.054-11.054 6.105 0 11.054 4.949 11.054 11.054 0 6.105-4.949 11.054-11.054 11.054-6.105 0-11.054-4.949-11.054-11.054z" fill="#ff851b" data-fill-palette-color="primary"></path><path d="M257.892 139.639c0-6.105 4.949-11.054 11.054-11.054 6.105 0 11.054 4.949 11.054 11.054 0 6.105-4.949 11.054-11.054 11.054-6.105 0-11.054-4.949-11.054-11.054z" fill="#ff851b" data-fill-palette-color="primary"></path></g><g id="text-1"><path d="M30.766 172.484l1.456 3.102-20.538 6.104c-2.442 0.726-4.589 0.878-6.441 0.457-1.852-0.421-3.6-1.419-5.243-2.994v0l2.386-2.524c0.729 0.664 1.462 1.167 2.2 1.507 0.737 0.34 1.48 0.557 2.228 0.649 0.746 0.086 1.482 0.081 2.208-0.017 0.726-0.097 1.44-0.25 2.14-0.457v0zM36.469 170.076v0c0.623-0.185 1.21-0.129 1.76 0.169 0.542 0.294 0.905 0.752 1.091 1.375v0c0.193 0.649 0.147 1.26-0.137 1.835-0.29 0.576-0.747 0.956-1.37 1.141v0c-0.623 0.185-1.211 0.115-1.762-0.21-0.558-0.324-0.933-0.81-1.126-1.459v0c-0.185-0.623-0.128-1.207 0.172-1.751 0.292-0.548 0.749-0.915 1.372-1.1z" fill="#ff851b" data-fill-palette-color="primary"></path><path d="M48.853 209.222l2.443 2.403-17.141 12.856c-2.038 1.528-3.998 2.416-5.882 2.664-1.884 0.248-3.869-0.081-5.956-0.987v0l1.361-3.196c0.914 0.37 1.776 0.587 2.586 0.65 0.81 0.063 1.581 0.008 2.315-0.165 0.729-0.178 1.418-0.439 2.065-0.782 0.648-0.343 1.264-0.734 1.848-1.173v0zM53.365 204.983v0c0.52-0.39 1.09-0.541 1.71-0.453 0.61 0.087 1.11 0.391 1.5 0.911v0c0.406 0.542 0.576 1.131 0.509 1.768-0.072 0.641-0.369 1.156-0.889 1.546v0c-0.52 0.39-1.095 0.528-1.726 0.414-0.635-0.11-1.156-0.436-1.562-0.977v0c-0.39-0.52-0.539-1.087-0.446-1.701 0.083-0.615 0.385-1.118 0.904-1.508z" fill="#ff851b" data-fill-palette-color="primary"></path><path d="M66.897 255.243l11.823-17.821 3.034 1.555-12.034 18.139zM81.611 232.064v0c0.359-0.542 0.843-0.877 1.45-1.004 0.61-0.118 1.185 0.002 1.727 0.361v0c0.564 0.374 0.921 0.873 1.072 1.495 0.141 0.624 0.032 1.207-0.328 1.749v0c-0.359 0.542-0.852 0.866-1.479 0.974-0.636 0.109-1.235-0.023-1.799-0.397v0c-0.542-0.359-0.875-0.846-0.999-1.459-0.122-0.604-0.004-1.177 0.356-1.719z" fill="#ff851b" data-fill-palette-color="primary"></path><path d="M112.076 274.239l3.077-16.823c0.133-0.575 0.295-1.854 0.487-3.836v0l3.162 0.149-0.024 2.755c0.932-0.402 1.848-0.735 2.749-1 0.895-0.272 1.803-0.488 2.724-0.646 0.923-0.165 1.787-0.174 2.591-0.027v0c1.141 0.209 2.069 0.515 2.786 0.918 0.717 0.404 1.256 0.955 1.619 1.656 0.363 0.7 0.554 1.57 0.576 2.609 0.028 1.041-0.096 2.313-0.371 3.817v0l-2.473 13.52-3.333-0.61 2.404-13.144c0.153-0.837 0.273-1.585 0.359-2.245 0.093-0.658 0.076-1.236-0.05-1.736-0.121-0.492-0.376-0.904-0.766-1.234-0.383-0.329-0.963-0.565-1.741-0.707v0c-0.725-0.133-1.519-0.114-2.382 0.055-0.87 0.175-1.732 0.399-2.586 0.672-0.854 0.273-1.735 0.616-2.641 1.03v0l-2.824 15.439z" fill="#ff851b" data-fill-palette-color="primary"></path><path d="M174.525 262.634v0c0.299 0.974 0.738 1.866 1.317 2.677 0.574 0.819 1.263 1.474 2.065 1.964 0.805 0.496 1.689 0.817 2.652 0.963 0.963 0.146 1.999 0.048 3.108-0.292v0c1.076-0.331 1.972-0.827 2.688-1.489 0.715-0.662 1.26-1.421 1.634-2.279 0.376-0.852 0.572-1.778 0.588-2.779 0.017-0.994-0.124-1.978-0.423-2.952v0c-0.307-1-0.747-1.906-1.319-2.719-0.574-0.819-1.256-1.476-2.046-1.969-0.792-0.5-1.667-0.817-2.627-0.95-0.959-0.133-1.977-0.034-3.054 0.297v0c-1.109 0.341-2.022 0.835-2.742 1.484-0.719 0.649-1.273 1.404-1.659 2.266-0.389 0.856-0.591 1.784-0.607 2.784-0.024 0.996 0.118 1.994 0.425 2.994zM171.084 263.691v0c-0.457-1.487-0.628-2.959-0.515-4.417 0.115-1.452 0.486-2.8 1.113-4.045 0.621-1.243 1.475-2.332 2.562-3.269 1.091-0.945 2.38-1.646 3.866-2.103v0c1.461-0.449 2.905-0.587 4.332-0.415 1.425 0.165 2.737 0.59 3.936 1.273 1.205 0.682 2.263 1.591 3.173 2.727 0.912 1.143 1.597 2.458 2.053 3.945v0c0.449 1.461 0.616 2.917 0.501 4.369-0.113 1.458-0.475 2.814-1.086 4.068-0.604 1.251-1.45 2.346-2.536 3.282-1.085 0.943-2.357 1.639-3.818 2.088v0c-1.487 0.457-2.947 0.6-4.38 0.431-1.425-0.165-2.745-0.594-3.961-1.287-1.222-0.691-2.289-1.607-3.201-2.751-0.91-1.137-1.59-2.436-2.039-3.896z" fill="#ff851b" data-fill-palette-color="primary"></path><path d="M241.614 230.344l2.43 1.596c-0.329 0.596-0.695 1.186-1.1 1.772-0.4 0.58-0.862 1.202-1.386 1.865-0.52 0.659-1.105 1.302-1.757 1.93v0c-1.019 0.981-2.105 1.752-3.258 2.313-1.148 0.557-2.353 0.833-3.613 0.828-1.261-0.005-2.566-0.33-3.914-0.976-1.348-0.646-2.729-1.703-4.143-3.172v0c-1.274-1.323-2.213-2.666-2.818-4.028-0.605-1.362-0.914-2.693-0.928-3.992-0.018-1.295 0.24-2.534 0.774-3.719 0.529-1.18 1.304-2.26 2.322-3.241v0c0.999-0.963 2.052-1.604 3.158-1.925 1.111-0.316 2.223-0.373 3.338-0.172 1.115 0.201 2.216 0.63 3.304 1.286 1.087 0.665 2.103 1.488 3.047 2.468v0l0.834 1.779-9.871 9.506c0.609 0.632 1.3 1.186 2.074 1.66 0.768 0.479 1.597 0.779 2.486 0.901 0.889 0.131 1.805 0.043 2.749-0.262 0.944-0.305 1.895-0.917 2.851-1.837v0c0.613-0.591 1.141-1.164 1.582-1.72 0.442-0.565 0.807-1.075 1.096-1.53 0.288-0.454 0.536-0.898 0.743-1.33zM226.237 232.423l7.705-7.421c-0.135-0.14-0.471-0.426-1.008-0.858-0.528-0.432-1.161-0.804-1.898-1.117-0.729-0.312-1.53-0.453-2.403-0.422-0.868 0.036-1.691 0.428-2.468 1.177v0c-0.855 0.823-1.387 1.676-1.599 2.558-0.206 0.887-0.234 1.733-0.083 2.537 0.141 0.804 0.396 1.517 0.763 2.141 0.367 0.633 0.697 1.101 0.991 1.405z" fill="#ff851b" data-fill-palette-color="primary"></path><path d="M270.809 178.269l2.882 0.383c-0.038 0.68-0.111 1.371-0.222 2.073-0.108 0.696-0.254 1.457-0.439 2.282-0.182 0.819-0.431 1.653-0.745 2.501v0c-0.492 1.326-1.135 2.492-1.93 3.499-0.793 1-1.758 1.772-2.896 2.315-1.138 0.543-2.455 0.816-3.95 0.819-1.495 0.003-3.198-0.35-5.109-1.058v0c-1.722-0.639-3.151-1.44-4.287-2.405-1.136-0.965-1.993-2.029-2.569-3.193-0.579-1.158-0.884-2.387-0.918-3.686-0.035-1.293 0.193-2.602 0.685-3.929v0c0.482-1.301 1.152-2.336 2.009-3.104 0.863-0.767 1.841-1.301 2.933-1.605 1.092-0.303 2.27-0.395 3.534-0.276 1.268 0.127 2.54 0.427 3.816 0.9v0l1.524 1.241-4.765 12.849c0.823 0.305 1.686 0.504 2.589 0.596 0.9 0.098 1.777 0.008 2.63-0.269 0.857-0.268 1.645-0.745 2.364-1.429 0.718-0.684 1.308-1.649 1.77-2.893v0c0.296-0.798 0.522-1.544 0.679-2.236 0.153-0.701 0.26-1.319 0.323-1.854 0.062-0.534 0.093-1.041 0.092-1.521zM257.859 186.818l3.719-10.03c-0.182-0.068-0.609-0.179-1.28-0.336-0.663-0.16-1.395-0.22-2.196-0.181-0.792 0.035-1.575 0.256-2.347 0.663-0.767 0.409-1.337 1.12-1.713 2.131v0c-0.412 1.112-0.522 2.112-0.329 2.999 0.199 0.889 0.542 1.663 1.026 2.321 0.476 0.663 1.015 1.195 1.617 1.597 0.606 0.41 1.106 0.689 1.503 0.836z" fill="#ff851b" data-fill-palette-color="primary"></path></g></svg></g></svg></g></svg></g></svg></g><defs></defs></svg><rect width="280" height="280" fill="none" stroke="none" visibility="hidden"></rect></g></svg></g></svg>